<?xml version="1.0" standalone="no"?>
<!DOCTYPE svg PUBLIC "-//W3C//DTD SVG 20010904//EN"
 "http://www.w3.org/TR/2001/REC-SVG-20010904/DTD/svg10.dtd">
<svg version="1.0" xmlns="http://www.w3.org/2000/svg"
 width="500.000000pt" height="500.000000pt" viewBox="0 0 500.000000 500.000000"
 preserveAspectRatio="xMidYMid meet">
<metadata>
Created by potrace 1.14, written by Peter Selinger 2001-2017
</metadata>
<g transform="translate(0.000000,500.000000) scale(0.100000,-0.100000)"
fill="#000000" stroke="none">
<path d="M1047 4984 c-471 -86 -840 -405 -987 -855 -61 -187 -60 -149 -60
-1624 0 -1479 -1 -1455 61 -1639 146 -438 491 -748 934 -842 86 -18 152 -19
1505 -19 1353 0 1419 1 1505 19 517 110 912 531 985 1051 8 57 10 482 8 1465
-3 1290 -5 1390 -22 1460 -126 531 -505 892 -1032 984 -78 14 -262 16 -1454
15 -1130 -1 -1378 -4 -1443 -15z m1620 -1252 c62 -130 170 -361 242 -512 183
-388 227 -544 238 -850 19 -548 -214 -1070 -637 -1424 -117 -99 -359 -251
-374 -235 -10 10 -441 921 -473 999 -37 93 -84 262 -105 380 -8 47 -13 156
-13 290 0 186 3 230 23 325 50 239 166 508 299 694 132 184 339 377 518 483
118 70 150 88 160 88 6 0 60 -107 122 -238z"/>
</g>
</svg>
